<?xml version="1.0" standalone="no"?><!DOCTYPE svg PUBLIC "-//W3C//DTD SVG 1.1//EN" "http://www.w3.org/Graphics/SVG/1.1/DTD/svg11.dtd"><svg t="1647586940496" class="icon" viewBox="0 0 1024 1024" version="1.1" xmlns="http://www.w3.org/2000/svg" p-id="1174" width="128" height="128" xmlns:xlink="http://www.w3.org/1999/xlink"><defs><style type="text/css"></style></defs><path d="M1024 682.708571a573.257143 573.257143 0 0 0-3.771429-64.56l-3.188571-27.84-22.434286-10.617142c-27.325714-98.285714-99.074286-255.577143-286.422857-444.194286L693.142857 120.342857h-21.508571c-2.228571 0-4.8 0-13.645715 1.508572C595.017143 62 545.142857 24.685714 542.857143 22.971429L512 0l-30.857143 22.971429c-0.982857 0.742857-19.851429 14.857143-48.685714 39.245714l-12.651429-4.937143-22.308571 14.651429C322.594286 121.142857 243.428571 200.651429 177.794286 292.022857l-27.428572 3.6-12.32 23.165714C83.737143 420.697143 33.005714 527.085714 17.634286 625.28L0 624.422857v58.285714C0 1024 345.817143 1024 512 1024h12.8c64.091429 0 156.342857 0 243.2-22.857143 133.954286-33.382857 256-115.68 256-318.434286z" fill="#25467A" p-id="1175"></path><path d="M870.4 581.588571c0 251.314286-160.457143 316.011429-358.4 316.011429s-358.4-64.697143-358.4-316.011429S512 63.337143 512 63.337143 870.4 330.285714 870.4 581.588571z" fill="#95D13C" p-id="1176"></path><path d="M912.091429 853.36C839.531429 953.714286 690.285714 973.44 518.034286 973.44c-243.657143 0-441.234286-39.44-441.234286-290.731429 0-194.525714 182.525714-459.222857 349.085714-568.685714 298.457143 116.422857 453.6 399.565714 486.205715 739.337143z" fill="#FBEAAE" p-id="1177"></path><path d="M960 682.708571c0 251.291429-194.868571 290.731429-435.2 290.731429S89.6 934 89.6 682.708571c0-79.508571 57.862857-208.685714 92.194286-296.285714C334.48 229.714286 668.022857 170.777143 671.657143 170.902857 798.948571 299.074286 960 516.491429 960 682.708571z" fill="#F7E39E" p-id="1178"></path><path d="M947.2 632.148571C947.2 883.428571 759.394286 973.44 512 973.44S64 934 64 682.708571c0-104.914286 60.571429-230.045714 119.302857-340.4 36.571429-4.8 48.194286-7.2 86.034286-7.2 281.245714 0 677.862857 297.04 677.862857 297.04z" fill="#FBDD73" p-id="1179"></path><path d="M972.8 682.708571c0 251.291429-206.331429 290.731429-460.8 290.731429-245.245714 0-420.228571-49.302857-434.285714-276.948571 148.457143-108.08 306.285714-159.142857 504.685714-159.142858 138.628571 0 269.828571 18.285714 386.948571 73.657143 2.297143 20.228571 3.451429 52.617143 3.451429 71.702857z" fill="#EDCD5C" p-id="1180"></path><path d="M669.565714 966.102857c-49.142857 5.44-102.274286 7.337143-157.565714 7.337143-254.468571 0-460.8-39.44-460.8-290.731429v-5.177142a898.605714 898.605714 0 0 1 618.365714 288.571428z" fill="#E3BE39" p-id="1181"></path><path d="M512 550.4a64.068571 64.068571 0 0 1-64-64 12.8 12.8 0 1 1 25.6 0 38.4 38.4 0 0 0 76.8 0 12.8 12.8 0 1 1 25.6 0 64.068571 64.068571 0 0 1-64 64z" fill="#25467A" p-id="1182"></path><path d="M384 384m-38.4 0a38.4 38.4 0 1 0 76.8 0 38.4 38.4 0 1 0-76.8 0Z" fill="#25467A" p-id="1183"></path><path d="M640 384m-38.4 0a38.4 38.4 0 1 0 76.8 0 38.4 38.4 0 1 0-76.8 0Z" fill="#25467A" p-id="1184"></path><path d="M332.8 448h-51.2a25.6 25.6 0 1 0 0 51.2h51.2a25.6 25.6 0 1 0 0-51.2zM742.4 448h-51.2a25.6 25.6 0 1 0 0 51.2h51.2a25.6 25.6 0 0 0 0-51.2z" fill="#E3BC13" p-id="1185"></path></svg>